HIERARCHY
ROOT simHips
{
  OFFSET 6.13146 95.3961 -0.669452
  CHANNELS 6 Xposition Yposition Zposition Zrotation Xrotation Yrotation
  JOINT simSpine
  {
    OFFSET -0.000360269 21.3001 -0.0169217
    CHANNELS 3 Zrotation Xrotation Yrotation
    JOINT simLeftArm
    {
      OFFSET 13.5181 21.3012 -2.3511e-005
      CHANNELS 3 Zrotation Xrotation Yrotation
      JOINT simLeftForeArm
      {
        OFFSET 24.5783 0 -6.3921e-005
        CHANNELS 3 Zrotation Xrotation Yrotation
        JOINT simLeftHand
        {
          OFFSET 24.5783 0 0
          CHANNELS 3 Zrotation Xrotation Yrotation
          End Site
          {
            OFFSET 7.32568 1.52588e-005 0.0169305
          }
        }
      }
    }
    JOINT simHead
    {
      OFFSET 0 27.4458 -0.00488811
      CHANNELS 3 Zrotation Xrotation Yrotation
      End Site
      {
        OFFSET 0 0 0
      }
    }
    JOINT simRightArm
    {
      OFFSET -13.5174 21.3012 -1.52733e-005
      CHANNELS 3 Zrotation Xrotation Yrotation
      JOINT simRightForeArm
      {
        OFFSET -24.5783 -0.000552281 0.000112897
        CHANNELS 3 Zrotation Xrotation Yrotation
        JOINT simRightHand
        {
          OFFSET -24.5783 0 1.19926e-005
          CHANNELS 3 Zrotation Xrotation Yrotation
          End Site
          {
            OFFSET -7.32568 1.52588e-005 0.0169305
          }
        }
      }
    }
  }
  JOINT simRightUpLeg
  {
    OFFSET -8.44614 -9.41038 0.835682
    CHANNELS 3 Zrotation Xrotation Yrotation
    JOINT simRightLeg
    {
      OFFSET -3.23466e-005 -40.9639 0
      CHANNELS 3 Zrotation Xrotation Yrotation
      JOINT simRightFoot
      {
        OFFSET 0 -40.9639 0
        CHANNELS 3 Zrotation Xrotation Yrotation
        End Site
        {
          OFFSET 0.50614 -9.67405 14.6709
        }
      }
    }
  }
  JOINT simLeftUpLeg
  {
    OFFSET 8.44614 -9.41038 0.835681
    CHANNELS 3 Zrotation Xrotation Yrotation
    JOINT simLeftLeg
    {
      OFFSET -0.00018133 -40.964 6.2497e-005
      CHANNELS 3 Zrotation Xrotation Yrotation
      JOINT simLeftFoot
      {
        OFFSET 0 -40.9639 0
        CHANNELS 3 Zrotation Xrotation Yrotation
        End Site
        {
          OFFSET -0.50614 -9.67405 14.6709
        }
      }
    }
  }
}
MOTION
Frames:	13
Frame Time:	0.0333333
13.2681 98.1778 -278.792 11.5375 22.8024 -42.1959 8.61257 19.2485 2.11494 -55.1421 11.6062 -13.4817 -0.000743249 -1.89715e-005 -79.769 -14.5974 -41.2498 -28.124 4.65038 -20.1937 14.9911 62.7238 -16.0174 26.8107 4.57534e-005 1.21994e-006 85.4143 168.155 -6.49253 -155.114 -15.8127 -46.5455 -33.3493 -0.000975222 44.427 0.128777 14.2076 -17.9424 0.656047 25.6854 -46.225 27.2221 -0.000533532 61.2384 0.0172798 -6.73995 -30.5092 -2.38854 
13.8129 98.9041 -281.226 10.9517 26.7646 -42.6794 6.41237 19.3561 1.27907 -49.6896 11.8287 -18.0402 -0.000743703 -1.62547e-005 -81.2467 -15.2029 -42.2518 -26.0612 5.73334 -20.5594 15.9543 64.2818 -19.1237 22.9355 0.000938937 3.49377e-007 88.688 166.976 -5.76337 -154.934 -10.5886 -48.6152 -33.0146 -0.000125736 39.6768 0.123067 15.5826 -14.958 1.24206 32.9148 -49.8382 31.229 -0.0010045 60.4681 0.0240601 -6.66881 -26.9526 -1.71278 
14.3296 99.5294 -283.407 10.5132 30.1906 -43.1243 3.74042 19.4827 0.423058 -44.9593 11.4901 -22.0993 -0.000743846 -1.52982e-005 -81.7654 -15.5711 -42.7033 -25.0042 7.23761 -20.9295 17.1568 65.9149 -21.0244 19.4493 0.00145639 -4.05483e-007 91.5227 165.444 -5.45777 -155.143 -5.59867 -49.9193 -32.0722 0.00164148 34.5565 0.117306 18.277 -11.5308 1.83068 39.631 -51.3524 36.4238 0.00747963 58.0136 0.0191431 -6.82537 -25.1788 -2.50581 
14.8044 99.9972 -285.333 10.037 33.2369 -43.6568 1.26591 19.2984 -0.513672 -41.1194 10.9836 -25.3478 -0.00074368 -1.64055e-005 -81.1648 -16.7491 -43.8471 -24.9064 8.30428 -20.742 18.0699 66.9855 -21.8087 16.0978 0.00166185 -1.18617e-006 94.4585 163.806 -4.80901 -155.114 -0.839192 -50.7854 -30.6862 -1.21658e-005 29.76 0.096556 21.8185 -7.85844 2.27088 45.2979 -51.4736 41.4387 0.0523564 54.7643 0.00392867 -7.31346 -24.5579 -3.7515 
15.3002 100.279 -287.033 9.53127 35.7951 -44.3396 -0.858294 18.9876 -1.3521 -38.5292 10.3937 -27.2562 -0.000743582 -1.70263e-005 -80.8276 -17.8782 -44.7747 -25.6076 8.76139 -20.2343 18.9785 67.6683 -22.3555 13.3491 0.00161904 -1.92872e-006 97.2616 162.156 -4.40193 -155.239 3.44267 -51.534 -28.5207 0.00632705 25.8159 0.046021 25.8329 -4.07526 2.13155 50.6687 -51.8181 45.5527 0.00154006 52.9801 -0.00631337 -7.68686 -23.1991 -4.05177 
15.8693 100.4 -288.508 9.06663 37.7144 -45.0616 -2.69234 18.7831 -2.0552 -37.5249 9.52253 -28.143 -0.000743608 -1.68592e-005 -80.9184 -18.6834 -44.7608 -25.9307 9.14101 -20.2937 20.4337 67.8443 -22.8595 11.6179 0.00139169 -2.68924e-006 100.151 161.133 -4.4162 -155.619 6.97897 -52.1228 -25.1003 0.000149745 22.51 -0.0560029 30.5658 -0.268919 1.13344 55.493 -52.2568 49.1481 0.00115742 52.3751 -0.0120384 -7.72337 -21.6271 -3.91769 
16.3894 100.346 -289.844 8.50556 39.005 -45.5987 -4.2916 18.7491 -2.43605 -38.1155 8.12647 -28.3308 -0.000743763 -1.58636e-005 -81.4588 -19.7967 -43.7983 -26.9244 9.99436 -20.8775 21.8782 68.213 -23.6322 11.5867 0.0010435 -3.28101e-006 102.417 160.572 -5.30242 -155.549 9.41953 -52.1476 -21.1302 -0.000646052 19.535 -0.267173 37.159 3.00681 -0.34087 59.4473 -52.557 51.853 0.00327362 52.3321 -0.0240273 -7.6154 -20.2688 -3.52687 
16.8272 100.116 -291.061 7.64234 39.7234 -45.7582 -5.29947 18.8584 -2.43036 -39.6673 6.60651 -27.9967 -0.000744036 -1.39218e-005 -82.5108 -19.9544 -43.199 -27.3112 10.5991 -20.7437 22.7211 68.0542 -24.2338 12.5733 0.000638224 -3.83105e-006 104.541 160.748 -5.55641 -156.671 10.2626 -52.2302 -16.9233 -0.0019603 18.7073 -0.588758 44.7992 4.67545 -0.6405 62.5353 -52.7016 53.6019 -0.000227595 52.7651 -0.0340617 -7.53573 -19.3398 -3.07962 
17.2334 99.951 -292.213 6.82685 39.8168 -45.5912 -5.96624 19.0017 -2.06073 -42.2945 4.51124 -27.2363 -0.000744302 -1.17218e-005 -83.6995 -19.3321 -42.1795 -28.1117 10.6902 -20.4219 22.706 67.6821 -25.0255 14.5616 0.000239606 -4.42226e-006 106.847 161.879 -5.05127 -156.352 8.02835 -54.5531 -17.6536 -0.00254569 24.9794 -0.480828 45.7759 3.74495 2.41319 64.6405 -52.6375 55.1776 -0.000255691 53.1394 -0.0308979 -7.4367 -18.206 -3.23427 
17.536 99.8983 -293.228 6.07223 38.9981 -44.8728 -6.40682 19.3091 -1.14251 -45.5954 2.33164 -26.2945 -0.000744513 -9.62332e-006 -84.8309 -19.1946 -41.2763 -28.1395 10.3148 -20.5333 22.1795 66.4678 -25.4836 17.5725 -8.86299e-005 -5.00225e-006 109.137 162.263 -5.94812 -154.106 0.44381 -56.5189 -26.502 -6.17398e-006 37.1411 -0.0738924 37.9182 -1.1943 6.22027 64.5316 -52.5524 55.2969 -0.000200656 53.0734 -0.00487125 -7.33245 -16.9952 -3.62769 
17.5916 99.587 -294.131 5.85344 37.3291 -43.6732 -7.09452 19.2976 0.517982 -48.303 0.780871 -24.5424 -0.000744781 -5.95628e-006 -86.8033 -17.9517 -41.0339 -28.1412 9.93978 -20.5564 20.8068 65.3093 -25.8003 20.6926 -0.00028273 -5.62731e-006 111.641 162.064 -5.65585 -152.33 -8.36641 -55.1566 -32.2372 0.0150187 45.9833 0.0252253 31.98 -5.4806 7.3085 62.8929 -53.0485 54.6224 -0.000167513 53.5067 0.0146326 -7.25536 -16.1954 -4.23294 
17.3841 99.1785 -295.02 5.8303 35.2657 -42.1783 -7.72925 18.9798 2.45537 -50.5236 -1.04705 -22.0266 -0.000744897 -3.29298e-006 -88.2333 -18.5821 -40.9618 -30.2354 9.84737 -20.6515 19.2655 64.8244 -24.9052 24.6316 -0.000279128 -5.89264e-006 112.717 162.22 -6.70819 -152.248 -14.9063 -51.9339 -34.3082 -0.000373138 51.3433 -0.0184713 24.2121 -6.85816 5.54327 60.5919 -53.5859 53.5656 -0.000489393 54.079 0.030713 -7.30327 -15.4922 -5.15567 
16.9668 98.6201 -295.924 5.9387 32.8191 -40.4448 -8.11633 18.6285 4.60141 -51.8318 -3.00578 -19.5468 -0.000744928 -2.01345e-006 -88.9199 -17.6557 -42.1132 -31.2977 9.2816 -21.1147 16.7832 64.3893 -22.822 28.9228 -1.41217e-005 -5.77995e-006 112.259 163.925 -8.70266 -152.902 -18.9614 -46.9065 -33.2994 -0.000807689 52.6291 -0.139386 17.2316 -4.19513 0.486858 57.7139 -54.1351 52.0003 9.7782e-005 54.9028 0.0352109 -7.50179 -15.0036 -6.19861 
